<svg width="70px" height="56px" viewBox="0 0 70 56" version="1.1" xmlns="http://www.w3.org/2000/svg" xmlns:xlink="http://www.w3.org/1999/xlink">
    <defs>
        <polygon id="path-1" points="0 0.266796748 63.9573029 0.266796748 63.9573029 56 0 56"></polygon>
        <polygon id="path-3" points="0.13955 0.114044444 4.512 0.114044444 4.512 3.99982222 0.13955 3.99982222"></polygon>
    </defs>
    <g id="dummy" stroke="none" stroke-width="1" fill="none" fill-rule="evenodd">
        <g id="navbar" transform="translate(-21.000000, -25.000000)">
            <g id="Group-9" transform="translate(21.000000, 25.000000)">
                <g id="Group-3">
                    <mask id="mask-2" fill="white">
                        <use xlink:href="#path-1"></use>
                    </mask>
                    <g id="Clip-2"></g>
                    <path d="M45.9701029,0.266660163 C40.3184457,0.266660163 35.2775314,7.7665626 31.9797029,19.4928715 C28.6832457,7.7665626 23.6405029,0.266660163 17.9888457,0.266660163 C8.05558857,0.266660163 -0.000182857143,25.2198959 -0.000182857143,56.0003187 L7.99616,56.0003187 C7.99616,27.418465 12.4715886,4.24812358 17.9888457,4.24812358 C23.5079314,4.24812358 27.9829029,25.6369366 27.9829029,52.0197659 L35.97696,52.0197659 C35.97696,25.6369366 40.4510171,4.24812358 45.9701029,4.24812358 C51.4887314,4.24812358 55.96416,27.418465 55.96416,56.0003187 L63.9573029,56.0003187 C63.9573029,25.2198959 55.9038171,0.266660163 45.9701029,0.266660163" id="Fill-1" fill="#FFBC0D" mask="url(#mask-2)"></path>
                </g>
                <g id="Group-6" transform="translate(65.000000, 52.000000)">
                    <mask id="mask-4" fill="white">
                        <use xlink:href="#path-3"></use>
                    </mask>
                    <g id="Clip-5"></g>
                    <path d="M2.33255,3.71537778 C1.31455,3.71537778 0.53705,2.99848889 0.53705,2.04826667 C0.53705,1.1176 1.31455,0.400266667 2.33255,0.400266667 C3.33605,0.400266667 4.11605,1.1176 4.11605,2.04826667 C4.11605,2.99848889 3.33605,3.71537778 2.33255,3.71537778 M2.33255,0.114044444 C1.14105,0.114044444 0.13955,0.950488889 0.13955,2.04826667 C0.13955,3.16337778 1.14105,3.99982222 2.33255,3.99982222 C3.51905,3.99982222 4.51205,3.16337778 4.51205,2.04826667 C4.51205,0.950488889 3.51905,0.114044444 2.33255,0.114044444" id="Fill-4" fill="#FFBC0D" mask="url(#mask-4)"></path>
                </g>
                <path d="M67.8394614,53.8882364 L67.4101502,53.8882364 L67.4101502,53.2521041 L67.9513206,53.2521041 C68.2299327,53.2521041 68.5297773,53.2924251 68.5297773,53.5574476 C68.5297773,53.8745351 68.1993786,53.8882364 67.8394614,53.8882364 M68.9388918,53.5707575 C68.9388918,53.1879037 68.6452615,53 68.0196789,53 L67,53 L67,55 L67.4101502,55 L67.4101502,54.1399491 L67.8446401,54.1399491 L68.5592957,55 L69,55 L68.2490937,54.1160697 C68.6380114,54.0839695 68.9388918,53.933255 68.9388918,53.5707575" id="Fill-7" fill="#FFBC0D"></path>
            </g>
        </g>
    </g>
</svg>